#!OML:ASF G:\JayActor3\Patient Classification 1\Patient 1\Session 5\male.ASF
:FULLY-SPECIFIED
:DEGREES
750
root 19.3542 17.8318 -6.24074 -703.101 -95.1047 720.501
lowerback 22.7006 -1.52847 3.10506
upperback 6.4164 -1.86966 -1.46052
thorax -5.75601 -1.11329 -2.83092
lowerneck 5.93719 2.02899 3.40839
upperneck -19.2949 2.67231 -1.31673
head -6.78618 0.99667 -1.17475
rclavicle -1.27222e-014 -1.43125e-014
rhumerus -30.1455 -2.02686 -90.4202
rradius 33.1686
rwrist 0.41049
rhand -21.4316 -8.4683
rfingers 7.12502
rthumb 4.95765 -38.3903
lclavicle -1.27222e-014 -1.43125e-014
lhumerus -30.3466 -1.94388 85.0794
lradius 29.8955
lwrist 21.0655
lhand -20.2586 9.79672
lfingers 7.12502
lthumb 6.09014 39.6892
rfemur -51.8429 6.87479 16.1942
rtibia 59.992
rfoot 6.28115 -7.09179
rtoes -2.46305
lfemur -34.7538 14.4388 -28.7925
ltibia 32.553
lfoot 15.5982 -8.86537
ltoes -19.3834
751
root 19.458 17.8388 -6.23274 -704.699 -95.0792 722.076
lowerback 22.7281 -1.56464 3.23844
upperback 6.41774 -1.88523 -1.44494
thorax -5.77218 -1.12191 -2.88572
lowerneck 5.9501 2.03349 3.40716
upperneck -19.2647 2.67998 -1.31804
head -6.77855 1.00174 -1.17544
rclavicle -2.76311e-014 -3.45885e-014
rhumerus -30.2589 -2.07067 -90.365
rradius 33.1555
rwrist 0.429415
rhand -21.3992 -8.4694
rfingers 7.12502
rthumb 4.9889 -38.3907
lclavicle -2.76311e-014 -3.45885e-014
lhumerus -30.4523 -1.85297 84.9855
lradius 29.8678
lwrist 20.9803
lhand -20.3038 9.76465
lfingers 7.12502
lthumb 6.04654 39.6584
rfemur -51.1643 6.83859 16.4789
rtibia 61.1588
rfoot 6.82309 -7.09502
rtoes -2.20742
lfemur -34.9543 14.4016 -28.6506
ltibia 32.2485
lfoot 16.0192 -8.88251
ltoes -18.9819
752
root 19.5613 17.8446 -6.2262 -706.115 -95.0513 723.465
lowerback 22.737 -1.59233 3.33863
upperback 6.42073 -1.89741 -1.42738
thorax -5.77601 -1.12845 -2.9206
lowerneck 5.97745 2.0289 3.40481
upperneck -19.2561 2.67818 -1.30202
head -6.781 1.00024 -1.17008
rclavicle -4.77083e-015 3.97569e-016
rhumerus -30.3724 -2.13891 -90.296
rradius 33.1367
rwrist 0.434094
rhand -21.3915 -8.45669
rfingers 7.12502
rthumb 4.99629 -38.3778
lclavicle -4.77083e-015 3.97569e-016
lhumerus -30.5573 -1.77226 84.9016
lradius 29.8386
lwrist 20.9191
lhand -20.3407 9.73194
lfingers 7.12502
lthumb 6.01088 39.6267
rfemur -50.448 6.78057 16.7619
rtibia 62.2258
rfoot 7.49268 -7.18335
rtoes -1.89169
lfemur -35.1327 14.3578 -28.5229
ltibia 31.9169
lfoot 16.4227 -8.91493
ltoes -18.6082
753
root 19.664 17.8494 -6.22104 -707.288 -95.0245 724.61
lowerback 22.7275 -1.60978 3.40344
upperback 6.42557 -1.90483 -1.41175
thorax -5.76735 -1.13225 -2.93894
lowerneck 6.01222 2.0189 3.40251
upperneck -19.2547 2.67213 -1.26928
head -6.78751 0.995078 -1.15921
rclavicle -1.66979e-014 -2.10712e-014
rhumerus -30.4829 -2.23609 -90.2147
rradius 33.1065
rwrist 0.43342
rhand -21.4077 -8.43489
rfingers 7.12502
rthumb 4.98068 -38.3564
lclavicle -1.66979e-014 -2.10712e-014
lhumerus -30.659 -1.70719 84.8265
lradius 29.8065
lwrist 20.8893
lhand -20.3671 9.70711
lfingers 7.12502
lthumb 5.98537 39.6026
rfemur -49.7008 6.70849 17.0325
rtibia 63.1944
rfoot 8.30405 -7.35118
rtoes -1.47035
lfemur -35.2908 14.3152 -28.4179
ltibia 31.5639
lfoot 16.8093 -8.96614
ltoes -18.2412
754
root 19.7663 17.8525 -6.21713 -708.202 -95.0047 725.491
lowerback 22.702 -1.6159 3.43087
upperback 6.43199 -1.90664 -1.3993
thorax -5.74768 -1.13292 -2.94115
lowerneck 6.05082 2.00427 3.39855
upperneck -19.2559 2.66215 -1.22241
head -6.7959 0.986849 -1.1433
rclavicle -3.73715e-014 -2.10712e-014
rhumerus -30.5902 -2.35482 -90.123
rradius 33.0652
rwrist 0.43551
rhand -21.4389 -8.42053
rfingers 7.12502
rthumb 4.95055 -38.3427
lclavicle -3.73715e-014 -2.10712e-014
lhumerus -30.7552 -1.65539 84.7591
lradius 29.7664
lwrist 20.8856
lhand -20.3848 9.69789
lfingers 7.12502
lthumb 5.96828 39.5938
rfemur -48.9296 6.63472 17.2819
rtibia 64.0676
rfoot 9.22975 -7.58017
rtoes -0.902023
lfemur -35.4358 14.2808 -28.3403
ltibia 31.1984
lfoot 17.1768 -9.03519
ltoes -17.8832
755
root 19.8684 17.8535 -6.21416 -708.893 -94.996 726.145
lowerback 22.6692 -1.61174 3.42922
upperback 6.43761 -1.9022 -1.39239
thorax -5.72423 -1.13034 -2.93453
lowerneck 6.08233 1.9882 3.39486
upperneck -19.2432 2.65199 -1.16587
head -6.79875 0.978054 -1.12409
rclavicle 1.47101e-014 4.57205e-014
rhumerus -30.694 -2.4883 -90.027
rradius 33.0076
rwrist 0.44609
rhand -21.4787 -8.41491
rfingers 7.12502
rthumb 4.91211 -38.338
lclavicle 1.47101e-014 4.57205e-014
lhumerus -30.8519 -1.61643 84.6962
lradius 29.7228
lwrist 20.894
lhand -20.394 9.6975
lfingers 7.12502
lthumb 5.95947 39.5937
rfemur -48.1358 6.57186 17.5074
rtibia 64.8442
rfoot 10.2269 -7.83062
rtoes -0.431629
lfemur -35.5716 14.2586 -28.2876
ltibia 30.8304
lfoot 17.5238 -9.12143
ltoes -17.531
756
root 19.9703 17.8524 -6.21187 -709.416 -95.0015 726.63
lowerback 22.6277 -1.59828 3.40477
upperback 6.44115 -1.89118 -1.39005
thorax -5.69773 -1.12438 -2.92175
lowerneck 6.10575 1.97141 3.38962
upperneck -19.2182 2.64131 -1.10466
head -6.79632 0.969036 -1.10286
rclavicle -1.98785e-015 -1.51076e-014
rhumerus -30.794 -2.62585 -89.9298
rradius 32.936
rwrist 0.473077
rhand -21.515 -8.42327
rfingers 7.12502
rthumb 4.87707 -38.3471
lclavicle -1.98785e-015 -1.51076e-014
lhumerus -30.9461 -1.58332 84.6363
lradius 29.6701
lwrist 20.8955
lhand -20.3937 9.69666
lfingers 7.12502
lthumb 5.95972 39.5928
rfemur -47.3263 6.52986 17.7091
rtibia 65.5215
rfoot 11.2665 -8.06786
rtoes -0.0253396
lfemur -35.7098 14.2496 -28.2553
ltibia 30.4734
lfoot 17.8483 -9.21011
ltoes -17.1607
757
root 20.0724 17.8491 -6.20987 -709.825 -95.023 727.001
lowerback 22.5807 -1.57689 3.36794
upperback 6.44265 -1.87303 -1.39272
thorax -5.67 -1.11486 -2.90932
lowerneck 6.1139 1.95592 3.38294
upperneck -19.1756 2.6319 -1.04279
head -6.78554 0.961113 -1.08093
rclavicle -9.93923e-015 2.42517e-014
rhumerus -30.8877 -2.76159 -89.8354
rradius 32.8519
rwrist 0.516567
rhand -21.5404 -8.44578
rfingers 7.12502
rthumb 4.85252 -38.3702
lclavicle -9.93923e-015 2.42517e-014
lhumerus -31.0375 -1.55077 84.5767
lradius 29.6096
lwrist 20.8716
lhand -20.3814 9.69075
lfingers 7.12502
lthumb 5.97159 39.5866
rfemur -46.5041 6.51278 17.8893
rtibia 66.0945
rfoot 12.3131 -8.23578
rtoes 0.220789
lfemur -35.8601 14.2554 -28.2415
ltibia 30.1378
lfoot 18.1395 -9.3043
ltoes -16.8213
758
root 20.1745 17.844 -6.20801 -710.218 -95.0602 727.358
lowerback 22.5257 -1.54771 3.32909
upperback 6.44342 -1.84556 -1.39761
thorax -5.63828 -1.10076 -2.90079
lowerneck 6.1163 1.94217 3.37989
upperneck -19.132 2.62343 -0.989753
head -6.77314 0.954144 -1.06242
rclavicle 2.70347e-014 3.22031e-014
rhumerus -30.9728 -2.8882 -89.7457
rradius 32.7594
rwrist 0.573984
rhand -21.5609 -8.47081
rfingers 7.12502
rthumb 4.83279 -38.3957
lclavicle 2.70347e-014 3.22031e-014
lhumerus -31.1234 -1.51309 84.5173
lradius 29.5436
lwrist 20.8068
lhand -20.358 9.68533
lfingers 7.12502
lthumb 5.99418 39.5805
rfemur -45.6723 6.52099 18.0576
rtibia 66.5567
rfoot 13.3513 -8.29137
rtoes 0.186686
lfemur -36.0269 14.269 -28.2325
ltibia 29.8331
lfoot 18.3925 -9.38359
ltoes -16.4791
759
root 20.2769 17.8375 -6.20617 -710.648 -95.1065 727.754
lowerback 22.4683 -1.51348 3.29897
upperback 6.44204 -1.80959 -1.40364
thorax -5.60733 -1.08257 -2.90075
lowerneck 6.11434 1.92804 3.37975
upperneck -19.0897 2.61286 -0.945585
head -6.76028 0.946641 -1.04707
rclavicle -7.95139e-016 -1.98785e-014
rhumerus -31.0565 -3.01301 -89.6608
rradius 32.6717
rwrist 0.645311
rhand -21.5782 -8.48709
rfingers 7.12502
rthumb 4.81602 -38.4124
lclavicle -7.95139e-016 -1.98785e-014
lhumerus -31.2028 -1.47038 84.4579
lradius 29.471
lwrist 20.7003
lhand -20.3229 9.67939
lfingers 7.12502
lthumb 6.02813 39.5736
rfemur -44.8347 6.54789 18.2221
rtibia 66.9037
rfoot 14.4094 -8.21605
rtoes -0.00882029
lfemur -36.2144 14.2859 -28.2251
ltibia 29.5628
lfoot 18.6017 -9.45829
ltoes -16.1857
